<svg xmlns="http://www.w3.org/2000/svg" width="1200" height="560" viewBox="0 0 1200 560" role="img" aria-labelledby="t d"><title id="t">Traditional sweep versus CORTEX scan pattern</title><desc id="d">Illustrative schematic comparing a blind triangular sweep with an adaptive dwell-and-lock scheduler on the same emitters</desc><defs><marker id="ah-cyan" viewBox="0 0 10 10" refX="8.5" refY="5" markerWidth="7" markerHeight="7" orient="auto-start-reverse"><path d="M0,0 L10,5 L0,10 z" fill="#22d3ee"/></marker><marker id="ah-green" viewBox="0 0 10 10" refX="8.5" refY="5" markerWidth="7" markerHeight="7" orient="auto-start-reverse"><path d="M0,0 L10,5 L0,10 z" fill="#34d399"/></marker><marker id="ah-amber" viewBox="0 0 10 10" refX="8.5" refY="5" markerWidth="7" markerHeight="7" orient="auto-start-reverse"><path d="M0,0 L10,5 L0,10 z" fill="#fbbf24"/></marker><marker id="ah-red" viewBox="0 0 10 10" refX="8.5" refY="5" markerWidth="7" markerHeight="7" orient="auto-start-reverse"><path d="M0,0 L10,5 L0,10 z" fill="#f87171"/></marker><marker id="ah-violet" viewBox="0 0 10 10" refX="8.5" refY="5" markerWidth="7" markerHeight="7" orient="auto-start-reverse"><path d="M0,0 L10,5 L0,10 z" fill="#a78bfa"/></marker><marker id="ah-blue" viewBox="0 0 10 10" refX="8.5" refY="5" markerWidth="7" markerHeight="7" orient="auto-start-reverse"><path d="M0,0 L10,5 L0,10 z" fill="#60a5fa"/></marker><marker id="ah-gray" viewBox="0 0 10 10" refX="8.5" refY="5" markerWidth="7" markerHeight="7" orient="auto-start-reverse"><path d="M0,0 L10,5 L0,10 z" fill="#64748b"/></marker><marker id="ah-muted" viewBox="0 0 10 10" refX="8.5" refY="5" markerWidth="7" markerHeight="7" orient="auto-start-reverse"><path d="M0,0 L10,5 L0,10 z" fill="#8fa3c4"/></marker><linearGradient id="g-bg" x1="0" y1="0" x2="1" y2="1"><stop offset="0" stop-color="#0b1220"/><stop offset="1" stop-color="#0f1b33"/></linearGradient><linearGradient id="g-cy" x1="0" y1="0" x2="1" y2="0"><stop offset="0" stop-color="#22d3ee"/><stop offset="1" stop-color="#60a5fa"/></linearGradient></defs><rect width="1200" height="560" rx="18" fill="url(#g-bg)"/><text x="600" y="34" font-family="Inter, 'Segoe UI', Helvetica, Arial, sans-serif" font-size="22" font-weight="700" fill="#e6edf7" text-anchor="middle">Scan Pattern: Traditional Sweep vs CORTEX</text><rect x="20" y="56" width="560" height="430" rx="14" fill="#111a2e" stroke="#60a5fa" stroke-width="1.8"/><text x="300.0" y="88" font-family="Inter, 'Segoe UI', Helvetica, Arial, sans-serif" font-size="17" font-weight="800" fill="#60a5fa" text-anchor="middle">TRADITIONAL SWEEP</text><text x="300.0" y="108" font-family="Inter, 'Segoe UI', Helvetica, Arial, sans-serif" font-size="12.5" font-weight="400" fill="#8fa3c4" text-anchor="middle">fixed triangular sweep · blind to emitter activity</text><rect x="70" y="128" width="460" height="340" rx="6" fill="#0a1020" stroke="#2a3a5c" stroke-width="1"/><rect x="158.6" y="258.2" width="121.3" height="2.6" fill="#94a3b8" opacity=".55"/><rect x="98.2" y="369.7" width="73.6" height="2.6" fill="#94a3b8" opacity=".55"/><rect x="385.1" y="428.2" width="77.1" height="2.6" fill="#94a3b8" opacity=".55"/><rect x="103.9" y="271.4" width="137.4" height="2.6" fill="#94a3b8" opacity=".55"/><rect x="91.8" y="221.0" width="75.9" height="2.6" fill="#94a3b8" opacity=".55"/><rect x="316.1" y="295.3" width="73.0" height="2.6" fill="#94a3b8" opacity=".55"/><rect x="122.9" y="228.9" width="144.3" height="2.6" fill="#94a3b8" opacity=".55"/><rect x="101.0" y="422.8" width="10.9" height="2.6" fill="#94a3b8" opacity=".55"/><rect x="114.3" y="218.3" width="12.1" height="2.6" fill="#94a3b8" opacity=".55"/><rect x="129.2" y="337.8" width="10.9" height="2.6" fill="#94a3b8" opacity=".55"/><rect x="142.4" y="159.9" width="17.2" height="2.6" fill="#94a3b8" opacity=".55"/><rect x="160.3" y="332.5" width="10.9" height="2.6" fill="#94a3b8" opacity=".55"/><rect x="174.7" y="242.2" width="12.7" height="2.6" fill="#94a3b8" opacity=".55"/><rect x="189.0" y="327.2" width="12.7" height="2.6" fill="#94a3b8" opacity=".55"/><rect x="201.7" y="332.5" width="15.5" height="2.6" fill="#94a3b8" opacity=".55"/><rect x="220.7" y="178.5" width="13.2" height="2.6" fill="#94a3b8" opacity=".55"/><rect x="236.2" y="268.8" width="13.8" height="2.6" fill="#94a3b8" opacity=".55"/><rect x="250.0" y="335.2" width="11.5" height="2.6" fill="#94a3b8" opacity=".55"/><rect x="261.5" y="311.3" width="13.8" height="2.6" fill="#94a3b8" opacity=".55"/><rect x="278.1" y="406.9" width="17.8" height="2.6" fill="#94a3b8" opacity=".55"/><rect x="297.1" y="340.5" width="18.4" height="2.6" fill="#94a3b8" opacity=".55"/><rect x="317.2" y="244.9" width="16.7" height="2.6" fill="#94a3b8" opacity=".55"/><rect x="334.5" y="380.3" width="13.2" height="2.6" fill="#94a3b8" opacity=".55"/><rect x="351.2" y="170.5" width="14.4" height="2.6" fill="#94a3b8" opacity=".55"/><rect x="367.8" y="321.9" width="15.5" height="2.6" fill="#94a3b8" opacity=".55"/><rect x="385.1" y="391.0" width="16.1" height="2.6" fill="#94a3b8" opacity=".55"/><rect x="402.9" y="348.5" width="15.5" height="2.6" fill="#94a3b8" opacity=".55"/><rect x="418.4" y="316.6" width="12.1" height="2.6" fill="#94a3b8" opacity=".55"/><rect x="432.2" y="398.9" width="13.2" height="2.6" fill="#94a3b8" opacity=".55"/><rect x="446.6" y="308.6" width="12.7" height="2.6" fill="#94a3b8" opacity=".55"/><rect x="461.0" y="369.7" width="10.9" height="2.6" fill="#94a3b8" opacity=".55"/><rect x="471.9" y="258.2" width="16.1" height="2.6" fill="#94a3b8" opacity=".55"/><rect x="490.9" y="345.8" width="16.7" height="2.6" fill="#94a3b8" opacity=".55"/><rect x="509.3" y="165.2" width="18.4" height="2.6" fill="#94a3b8" opacity=".55"/><rect x="76.3" y="303.3" width="15.0" height="2.6" fill="#94a3b8" opacity=".55"/><rect x="94.2" y="162.5" width="11.5" height="2.6" fill="#94a3b8" opacity=".55"/><rect x="108.5" y="361.8" width="15.5" height="2.6" fill="#94a3b8" opacity=".55"/><rect x="126.3" y="239.6" width="18.4" height="2.6" fill="#94a3b8" opacity=".55"/><rect x="147.6" y="444.1" width="17.2" height="2.6" fill="#94a3b8" opacity=".55"/><rect x="167.8" y="149.2" width="16.7" height="2.6" fill="#94a3b8" opacity=".55"/><rect x="186.2" y="199.7" width="16.7" height="2.6" fill="#94a3b8" opacity=".55"/><rect x="205.1" y="311.3" width="12.1" height="2.6" fill="#94a3b8" opacity=".55"/><rect x="217.2" y="404.2" width="13.8" height="2.6" fill="#94a3b8" opacity=".55"/><rect x="232.1" y="393.6" width="12.7" height="2.6" fill="#94a3b8" opacity=".55"/><rect x="245.4" y="276.8" width="17.2" height="2.6" fill="#94a3b8" opacity=".55"/><rect x="266.1" y="170.5" width="19.0" height="2.6" fill="#94a3b8" opacity=".55"/><rect x="285.6" y="279.4" width="18.4" height="2.6" fill="#94a3b8" opacity=".55"/><rect x="306.3" y="444.1" width="15.0" height="2.6" fill="#94a3b8" opacity=".55"/><rect x="321.9" y="436.1" width="17.8" height="2.6" fill="#94a3b8" opacity=".55"/><rect x="342.0" y="383.0" width="15.0" height="2.6" fill="#94a3b8" opacity=".55"/><rect x="358.6" y="375.0" width="16.7" height="2.6" fill="#94a3b8" opacity=".55"/><rect x="377.1" y="194.4" width="14.4" height="2.6" fill="#94a3b8" opacity=".55"/><rect x="391.4" y="194.4" width="13.2" height="2.6" fill="#94a3b8" opacity=".55"/><rect x="405.2" y="146.6" width="14.4" height="2.6" fill="#94a3b8" opacity=".55"/><rect x="421.3" y="231.6" width="13.2" height="2.6" fill="#94a3b8" opacity=".55"/><rect x="435.7" y="191.8" width="10.3" height="2.6" fill="#94a3b8" opacity=".55"/><rect x="447.8" y="351.1" width="16.7" height="2.6" fill="#94a3b8" opacity=".55"/><rect x="466.8" y="186.4" width="16.1" height="2.6" fill="#94a3b8" opacity=".55"/><rect x="485.7" y="353.8" width="19.6" height="2.6" fill="#94a3b8" opacity=".55"/><rect x="508.2" y="298.0" width="10.9" height="2.6" fill="#94a3b8" opacity=".55"/><rect x="522.5" y="276.8" width="7.5" height="2.6" fill="#94a3b8" opacity=".55"/><rect x="98.8" y="306.0" width="12.1" height="2.6" fill="#94a3b8" opacity=".55"/><rect x="113.7" y="162.5" width="17.2" height="2.6" fill="#94a3b8" opacity=".55"/><rect x="131.5" y="213.0" width="11.5" height="2.6" fill="#94a3b8" opacity=".55"/><rect x="144.8" y="181.1" width="13.2" height="2.6" fill="#94a3b8" opacity=".55"/><rect x="159.1" y="178.5" width="10.9" height="2.6" fill="#94a3b8" opacity=".55"/><rect x="170.1" y="324.6" width="12.7" height="2.6" fill="#94a3b8" opacity=".55"/><rect x="182.7" y="351.1" width="16.7" height="2.6" fill="#94a3b8" opacity=".55"/><rect x="199.4" y="438.8" width="11.5" height="2.6" fill="#94a3b8" opacity=".55"/><rect x="211.4" y="194.4" width="17.2" height="2.6" fill="#94a3b8" opacity=".55"/><rect x="231.6" y="260.8" width="15.0" height="2.6" fill="#94a3b8" opacity=".55"/><rect x="248.8" y="303.3" width="16.7" height="2.6" fill="#94a3b8" opacity=".55"/><rect x="265.5" y="430.8" width="12.1" height="2.6" fill="#94a3b8" opacity=".55"/><rect x="279.3" y="306.0" width="18.4" height="2.6" fill="#94a3b8" opacity=".55"/><rect x="299.4" y="170.5" width="15.5" height="2.6" fill="#94a3b8" opacity=".55"/><rect x="315.5" y="396.3" width="12.1" height="2.6" fill="#94a3b8" opacity=".55"/><rect x="328.8" y="306.0" width="15.0" height="2.6" fill="#94a3b8" opacity=".55"/><rect x="347.2" y="319.2" width="13.2" height="2.6" fill="#94a3b8" opacity=".55"/><rect x="360.4" y="321.9" width="13.8" height="2.6" fill="#94a3b8" opacity=".55"/><rect x="375.3" y="377.7" width="12.7" height="2.6" fill="#94a3b8" opacity=".55"/><rect x="390.3" y="401.6" width="10.3" height="2.6" fill="#94a3b8" opacity=".55"/><rect x="402.9" y="361.8" width="15.5" height="2.6" fill="#94a3b8" opacity=".55"/><rect x="421.9" y="380.3" width="11.5" height="2.6" fill="#94a3b8" opacity=".55"/><rect x="436.8" y="319.2" width="15.0" height="2.6" fill="#94a3b8" opacity=".55"/><rect x="452.9" y="263.5" width="13.2" height="2.6" fill="#94a3b8" opacity=".55"/><rect x="469.6" y="324.6" width="14.4" height="2.6" fill="#94a3b8" opacity=".55"/><rect x="486.3" y="255.5" width="19.6" height="2.6" fill="#94a3b8" opacity=".55"/><rect x="508.7" y="351.1" width="14.4" height="2.6" fill="#94a3b8" opacity=".55"/><rect x="526.5" y="417.5" width="3.4" height="2.6" fill="#94a3b8" opacity=".55"/><rect x="103.3" y="430.8" width="16.1" height="2.6" fill="#94a3b8" opacity=".55"/><rect x="181.0" y="430.8" width="16.1" height="2.6" fill="#94a3b8" opacity=".55"/><rect x="258.6" y="430.8" width="16.1" height="2.6" fill="#94a3b8" opacity=".55"/><rect x="336.2" y="430.8" width="16.1" height="2.6" fill="#94a3b8" opacity=".55"/><rect x="413.9" y="430.8" width="16.1" height="2.6" fill="#94a3b8" opacity=".55"/><rect x="491.5" y="430.8" width="16.1" height="2.6" fill="#94a3b8" opacity=".55"/><rect x="142.4" y="221.0" width="16.1" height="2.6" fill="#94a3b8" opacity=".55"/><rect x="224.7" y="221.0" width="16.1" height="2.6" fill="#94a3b8" opacity=".55"/><rect x="306.9" y="221.0" width="16.1" height="2.6" fill="#94a3b8" opacity=".55"/><rect x="389.1" y="221.0" width="16.1" height="2.6" fill="#94a3b8" opacity=".55"/><rect x="471.4" y="221.0" width="16.1" height="2.6" fill="#94a3b8" opacity=".55"/><rect x="74.0" y="274.1" width="16.1" height="2.6" fill="#94a3b8" opacity=".55"/><rect x="163.7" y="274.1" width="16.1" height="2.6" fill="#94a3b8" opacity=".55"/><rect x="253.4" y="274.1" width="16.1" height="2.6" fill="#94a3b8" opacity=".55"/><rect x="343.1" y="274.1" width="16.1" height="2.6" fill="#94a3b8" opacity=".55"/><rect x="432.8" y="274.1" width="16.1" height="2.6" fill="#94a3b8" opacity=".55"/><rect x="522.5" y="274.1" width="7.5" height="2.6" fill="#94a3b8" opacity=".55"/><path d="M70.0,129.3 L71.2,129.3 L71.7,129.3 L71.7,132.0 L72.9,132.0 L73.5,132.0 L73.5,134.6 L74.6,134.6 L75.2,134.6 L75.2,137.3 L76.3,137.3 L76.9,137.3 L76.9,140.0 L78.0,140.0 L78.6,140.0 L78.6,142.6 L79.8,142.6 L80.3,142.6 L80.3,145.3 L81.5,145.3 L82.1,145.3 L82.1,147.9 L83.2,147.9 L83.8,147.9 L83.8,150.6 L85.0,150.6 L85.5,150.6 L85.5,153.2 L86.7,153.2 L87.2,153.2 L87.2,155.9 L88.4,155.9 L89.0,155.9 L89.0,158.5 L90.1,158.5 L90.7,158.5 L90.7,161.2 L91.8,161.2 L92.4,161.2 L92.4,163.9 L93.6,163.9 L94.2,163.9 L94.2,166.5 L95.3,166.5 L95.9,166.5 L95.9,169.2 L97.0,169.2 L97.6,169.2 L97.6,171.8 L98.8,171.8 L99.3,171.8 L99.3,174.5 L100.5,174.5 L101.0,174.5 L101.0,177.1 L102.2,177.1 L102.8,177.1 L102.8,179.8 L103.9,179.8 L104.5,179.8 L104.5,182.5 L105.7,182.5 L106.2,182.5 L106.2,185.1 L107.4,185.1 L108.0,185.1 L108.0,187.8 L109.1,187.8 L109.7,187.8 L109.7,190.4 L110.8,190.4 L111.4,190.4 L111.4,193.1 L112.5,193.1 L113.1,193.1 L113.1,195.7 L114.3,195.7 L114.8,195.7 L114.8,198.4 L116.0,198.4 L116.6,198.4 L116.6,201.0 L117.7,201.0 L118.3,201.0 L118.3,203.7 L119.4,203.7 L120.0,203.7 L120.0,206.4 L121.2,206.4 L121.8,206.4 L121.8,209.0 L122.9,209.0 L123.5,209.0 L123.5,211.7 L124.6,211.7 L125.2,211.7 L125.2,214.3 L126.3,214.3 L126.9,214.3 L126.9,217.0 L128.1,217.0 L128.7,217.0 L128.7,219.6 L129.8,219.6 L130.4,219.6 L130.4,222.3 L131.5,222.3 L132.1,222.3 L132.1,225.0 L133.2,225.0 L133.8,225.0 L133.8,227.6 L135.0,227.6 L135.6,227.6 L135.6,230.3 L136.7,230.3 L137.3,230.3 L137.3,232.9 L138.4,232.9 L139.0,232.9 L139.0,235.6 L140.1,235.6 L140.7,235.6 L140.7,238.2 L141.9,238.2 L142.4,238.2 L142.4,240.9 L143.6,240.9 L144.2,240.9 L144.2,243.5 L145.3,243.5 L145.9,243.5 L145.9,246.2 L147.1,246.2 L147.6,246.2 L147.6,248.9 L148.8,248.9 L149.3,248.9 L149.3,251.5 L150.5,251.5 L151.1,251.5 L151.1,254.2 L152.2,254.2 L152.8,254.2 L152.8,256.8 L153.9,256.8 L154.5,256.8 L154.5,259.5 L155.7,259.5 L156.2,259.5 L156.2,262.1 L157.4,262.1 L158.0,262.1 L158.0,264.8 L159.1,264.8 L159.7,264.8 L159.7,267.5 L160.9,267.5 L161.4,267.5 L161.4,270.1 L162.6,270.1 L163.2,270.1 L163.2,272.8 L164.3,272.8 L164.9,272.8 L164.9,275.4 L166.0,275.4 L166.6,275.4 L166.6,278.1 L167.8,278.1 L168.3,278.1 L168.3,280.7 L169.5,280.7 L170.1,280.7 L170.1,283.4 L171.2,283.4 L171.8,283.4 L171.8,286.0 L172.9,286.0 L173.5,286.0 L173.5,288.7 L174.7,288.7 L175.2,288.7 L175.2,291.4 L176.4,291.4 L176.9,291.4 L176.9,294.0 L178.1,294.0 L178.7,294.0 L178.7,296.7 L179.8,296.7 L180.4,296.7 L180.4,299.3 L181.6,299.3 L182.1,299.3 L182.1,302.0 L183.3,302.0 L183.8,302.0 L183.8,304.6 L185.0,304.6 L185.6,304.6 L185.6,307.3 L186.7,307.3 L187.3,307.3 L187.3,310.0 L188.4,310.0 L189.0,310.0 L189.0,312.6 L190.2,312.6 L190.8,312.6 L190.8,315.3 L191.9,315.3 L192.5,315.3 L192.5,317.9 L193.6,317.9 L194.2,317.9 L194.2,320.6 L195.4,320.6 L195.9,320.6 L195.9,323.2 L197.1,323.2 L197.7,323.2 L197.7,325.9 L198.8,325.9 L199.4,325.9 L199.4,328.5 L200.5,328.5 L201.1,328.5 L201.1,331.2 L202.2,331.2 L202.8,331.2 L202.8,333.9 L204.0,333.9 L204.5,333.9 L204.5,336.5 L205.7,336.5 L206.3,336.5 L206.3,339.2 L207.4,339.2 L208.0,339.2 L208.0,341.8 L209.2,341.8 L209.7,341.8 L209.7,344.5 L210.9,344.5 L211.4,344.5 L211.4,347.1 L212.6,347.1 L213.2,347.1 L213.2,349.8 L214.3,349.8 L214.9,349.8 L214.9,352.5 L216.1,352.5 L216.6,352.5 L216.6,355.1 L217.8,355.1 L218.3,355.1 L218.3,357.8 L219.5,357.8 L220.1,357.8 L220.1,360.4 L221.2,360.4 L221.8,360.4 L221.8,363.1 L223.0,363.1 L223.5,363.1 L223.5,365.7 L224.7,365.7 L225.2,365.7 L225.2,368.4 L226.4,368.4 L227.0,368.4 L227.0,371.0 L228.1,371.0 L228.7,371.0 L228.7,373.7 L229.8,373.7 L230.4,373.7 L230.4,376.4 L231.6,376.4 L232.1,376.4 L232.1,379.0 L233.3,379.0 L233.9,379.0 L233.9,381.7 L235.0,381.7 L235.6,381.7 L235.6,384.3 L236.8,384.3 L237.3,384.3 L237.3,387.0 L238.5,387.0 L239.0,387.0 L239.0,389.6 L240.2,389.6 L240.8,389.6 L240.8,392.3 L241.9,392.3 L242.5,392.3 L242.5,395.0 L243.7,395.0 L244.2,395.0 L244.2,397.6 L245.4,397.6 L246.0,397.6 L246.0,400.3 L247.1,400.3 L247.7,400.3 L247.7,402.9 L248.8,402.9 L249.4,402.9 L249.4,405.6 L250.6,405.6 L251.1,405.6 L251.1,408.2 L252.3,408.2 L252.9,408.2 L252.9,410.9 L254.0,410.9 L254.6,410.9 L254.6,413.5 L255.7,413.5 L256.3,413.5 L256.3,416.2 L257.4,416.2 L258.0,416.2 L258.0,418.9 L259.2,418.9 L259.8,418.9 L259.8,421.5 L260.9,421.5 L261.5,421.5 L261.5,424.2 L262.6,424.2 L263.2,424.2 L263.2,426.8 L264.4,426.8 L264.9,426.8 L264.9,429.5 L266.1,429.5 L266.6,429.5 L266.6,432.1 L267.8,432.1 L268.4,432.1 L268.4,434.8 L269.5,434.8 L270.1,434.8 L270.1,437.5 L271.2,437.5 L271.8,437.5 L271.8,440.1 L273.0,440.1 L273.6,440.1 L273.6,442.8 L274.7,442.8 L275.3,442.8 L275.3,445.4 L276.4,445.4 L277.0,445.4 L277.0,448.1 L278.1,448.1 L278.7,448.1 L278.7,450.7 L279.9,450.7 L280.5,450.7 L280.5,453.4 L281.6,453.4 L282.2,453.4 L282.2,456.0 L283.3,456.0 L283.9,456.0 L283.9,458.7 L285.1,458.7 L285.6,458.7 L285.6,461.4 L286.8,461.4 L287.4,461.4 L287.4,464.0 L288.5,464.0 L289.1,464.0 L289.1,466.7 L290.2,466.7 L290.8,466.7 L290.8,464.0 L291.9,464.0 L292.5,464.0 L292.5,461.4 L293.7,461.4 L294.2,461.4 L294.2,458.7 L295.4,458.7 L296.0,458.7 L296.0,456.0 L297.1,456.0 L297.7,456.0 L297.7,453.4 L298.9,453.4 L299.4,453.4 L299.4,450.7 L300.6,450.7 L301.1,450.7 L301.1,448.1 L302.3,448.1 L302.9,448.1 L302.9,445.4 L304.0,445.4 L304.6,445.4 L304.6,442.8 L305.8,442.8 L306.3,442.8 L306.3,440.1 L307.5,440.1 L308.0,440.1 L308.0,437.5 L309.2,437.5 L309.8,437.5 L309.8,434.8 L310.9,434.8 L311.5,434.8 L311.5,432.1 L312.6,432.1 L313.2,432.1 L313.2,429.5 L314.4,429.5 L314.9,429.5 L314.9,426.8 L316.1,426.8 L316.7,426.8 L316.7,424.2 L317.8,424.2 L318.4,424.2 L318.4,421.5 L319.5,421.5 L320.1,421.5 L320.1,418.9 L321.3,418.9 L321.9,418.9 L321.9,416.2 L323.0,416.2 L323.6,416.2 L323.6,413.5 L324.7,413.5 L325.3,413.5 L325.3,410.9 L326.4,410.9 L327.0,410.9 L327.0,408.2 L328.2,408.2 L328.8,408.2 L328.8,405.6 L329.9,405.6 L330.5,405.6 L330.5,402.9 L331.6,402.9 L332.2,402.9 L332.2,400.3 L333.4,400.3 L333.9,400.3 L333.9,397.6 L335.1,397.6 L335.7,397.6 L335.7,395.0 L336.8,395.0 L337.4,395.0 L337.4,392.3 L338.5,392.3 L339.1,392.3 L339.1,389.6 L340.2,389.6 L340.8,389.6 L340.8,387.0 L342.0,387.0 L342.6,387.0 L342.6,384.3 L343.7,384.3 L344.3,384.3 L344.3,381.7 L345.4,381.7 L346.0,381.7 L346.0,379.0 L347.2,379.0 L347.7,379.0 L347.7,376.4 L348.9,376.4 L349.5,376.4 L349.5,373.7 L350.6,373.7 L351.2,373.7 L351.2,371.0 L352.3,371.0 L352.9,371.0 L352.9,368.4 L354.1,368.4 L354.6,368.4 L354.6,365.7 L355.8,365.7 L356.4,365.7 L356.4,363.1 L357.5,363.1 L358.1,363.1 L358.1,360.4 L359.2,360.4 L359.8,360.4 L359.8,357.8 L360.9,357.8 L361.5,357.8 L361.5,355.1 L362.7,355.1 L363.2,355.1 L363.2,352.5 L364.4,352.5 L365.0,352.5 L365.0,349.8 L366.1,349.8 L366.7,349.8 L366.7,347.1 L367.8,347.1 L368.4,347.1 L368.4,344.5 L369.6,344.5 L370.1,344.5 L370.1,341.8 L371.3,341.8 L371.9,341.8 L371.9,339.2 L373.0,339.2 L373.6,339.2 L373.6,336.5 L374.8,336.5 L375.3,336.5 L375.3,333.9 L376.5,333.9 L377.1,333.9 L377.1,331.2 L378.2,331.2 L378.8,331.2 L378.8,328.5 L379.9,328.5 L380.5,328.5 L380.5,325.9 L381.6,325.9 L382.2,325.9 L382.2,323.2 L383.4,323.2 L383.9,323.2 L383.9,320.6 L385.1,320.6 L385.7,320.6 L385.7,317.9 L386.8,317.9 L387.4,317.9 L387.4,315.3 L388.6,315.3 L389.1,315.3 L389.1,312.6 L390.3,312.6 L390.9,312.6 L390.9,310.0 L392.0,310.0 L392.6,310.0 L392.6,307.3 L393.7,307.3 L394.3,307.3 L394.3,304.6 L395.4,304.6 L396.0,304.6 L396.0,302.0 L397.2,302.0 L397.8,302.0 L397.8,299.3 L398.9,299.3 L399.5,299.3 L399.5,296.7 L400.6,296.7 L401.2,296.7 L401.2,294.0 L402.4,294.0 L402.9,294.0 L402.9,291.4 L404.1,291.4 L404.7,291.4 L404.7,288.7 L405.8,288.7 L406.4,288.7 L406.4,286.0 L407.5,286.0 L408.1,286.0 L408.1,283.4 L409.2,283.4 L409.8,283.4 L409.8,280.7 L411.0,280.7 L411.6,280.7 L411.6,278.1 L412.7,278.1 L413.3,278.1 L413.3,275.4 L414.4,275.4 L415.0,275.4 L415.0,272.8 L416.1,272.8 L416.7,272.8 L416.7,270.1 L417.9,270.1 L418.4,270.1 L418.4,267.5 L419.6,267.5 L420.2,267.5 L420.2,264.8 L421.3,264.8 L421.9,264.8 L421.9,262.1 L423.0,262.1 L423.6,262.1 L423.6,259.5 L424.8,259.5 L425.3,259.5 L425.3,256.8 L426.5,256.8 L427.1,256.8 L427.1,254.2 L428.2,254.2 L428.8,254.2 L428.8,251.5 L429.9,251.5 L430.5,251.5 L430.5,248.9 L431.7,248.9 L432.2,248.9 L432.2,246.2 L433.4,246.2 L434.0,246.2 L434.0,243.5 L435.1,243.5 L435.7,243.5 L435.7,240.9 L436.8,240.9 L437.4,240.9 L437.4,238.2 L438.6,238.2 L439.1,238.2 L439.1,235.6 L440.3,235.6 L440.9,235.6 L440.9,232.9 L442.0,232.9 L442.6,232.9 L442.6,230.3 L443.8,230.3 L444.3,230.3 L444.3,227.6 L445.5,227.6 L446.1,227.6 L446.1,225.0 L447.2,225.0 L447.8,225.0 L447.8,222.3 L448.9,222.3 L449.5,222.3 L449.5,219.6 L450.7,219.6 L451.2,219.6 L451.2,217.0 L452.4,217.0 L452.9,217.0 L452.9,214.3 L454.1,214.3 L454.7,214.3 L454.7,211.7 L455.8,211.7 L456.4,211.7 L456.4,209.0 L457.6,209.0 L458.1,209.0 L458.1,206.4 L459.3,206.4 L459.9,206.4 L459.9,203.7 L461.0,203.7 L461.6,203.7 L461.6,201.0 L462.7,201.0 L463.3,201.0 L463.3,198.4 L464.5,198.4 L465.0,198.4 L465.0,195.7 L466.2,195.7 L466.8,195.7 L466.8,193.1 L467.9,193.1 L468.5,193.1 L468.5,190.4 L469.6,190.4 L470.2,190.4 L470.2,187.8 L471.4,187.8 L471.9,187.8 L471.9,185.1 L473.1,185.1 L473.6,185.1 L473.6,182.5 L474.8,182.5 L475.4,182.5 L475.4,179.8 L476.5,179.8 L477.1,179.8 L477.1,177.1 L478.2,177.1 L478.8,177.1 L478.8,174.5 L480.0,174.5 L480.5,174.5 L480.5,171.8 L481.7,171.8 L482.3,171.8 L482.3,169.2 L483.4,169.2 L484.0,169.2 L484.0,166.5 L485.1,166.5 L485.7,166.5 L485.7,163.9 L486.9,163.9 L487.4,163.9 L487.4,161.2 L488.6,161.2 L489.2,161.2 L489.2,158.5 L490.3,158.5 L490.9,158.5 L490.9,155.9 L492.1,155.9 L492.6,155.9 L492.6,153.2 L493.8,153.2 L494.3,153.2 L494.3,150.6 L495.5,150.6 L496.1,150.6 L496.1,147.9 L497.2,147.9 L497.8,147.9 L497.8,145.3 L498.9,145.3 L499.5,145.3 L499.5,142.6 L500.7,142.6 L501.2,142.6 L501.2,140.0 L502.4,140.0 L503.0,140.0 L503.0,137.3 L504.1,137.3 L504.7,137.3 L504.7,134.6 L505.9,134.6 L506.4,134.6 L506.4,132.0 L507.6,132.0 L508.2,132.0 L508.2,129.3 L509.3,129.3 L509.9,129.3 L509.9,132.0 L511.0,132.0 L511.6,132.0 L511.6,134.6 L512.8,134.6 L513.3,134.6 L513.3,137.3 L514.5,137.3 L515.0,137.3 L515.0,140.0 L516.2,140.0 L516.8,140.0 L516.8,142.6 L517.9,142.6 L518.5,142.6 L518.5,145.3 L519.7,145.3 L520.2,145.3 L520.2,147.9 L521.4,147.9 L522.0,147.9 L522.0,150.6 L523.1,150.6 L523.7,150.6 L523.7,153.2 L524.8,153.2 L525.4,153.2 L525.4,155.9 L526.5,155.9 L527.1,155.9 L527.1,158.5 L528.3,158.5 L528.9,158.5 L528.9,161.2 L529.4,161.2" fill="none" stroke="#60a5fa" stroke-width="1.3" stroke-linecap="round" stroke-linejoin="round" opacity="0.85"/><rect x="130.4" y="219.3" width="3.2" height="6" rx="2.5" fill="#34d399"/><rect x="130.9" y="219.3" width="3.2" height="6" rx="2.5" fill="#34d399"/><rect x="131.5" y="219.3" width="3.2" height="6" rx="2.5" fill="#34d399"/><rect x="135.6" y="227.3" width="3.2" height="6" rx="2.5" fill="#34d399"/><rect x="136.1" y="227.3" width="3.2" height="6" rx="2.5" fill="#34d399"/><rect x="136.7" y="227.3" width="3.2" height="6" rx="2.5" fill="#34d399"/><rect x="142.4" y="237.9" width="3.2" height="6" rx="2.5" fill="#34d399"/><rect x="143.0" y="237.9" width="3.2" height="6" rx="2.5" fill="#34d399"/><rect x="143.6" y="237.9" width="3.2" height="6" rx="2.5" fill="#34d399"/><rect x="163.2" y="269.8" width="3.2" height="6" rx="2.5" fill="#34d399"/><rect x="163.7" y="269.8" width="3.2" height="6" rx="2.5" fill="#34d399"/><rect x="164.3" y="269.8" width="3.2" height="6" rx="2.5" fill="#34d399"/><rect x="164.9" y="272.4" width="3.2" height="6" rx="2.5" fill="#34d399"/><rect x="165.4" y="272.4" width="3.2" height="6" rx="2.5" fill="#34d399"/><rect x="166.0" y="272.4" width="3.2" height="6" rx="2.5" fill="#34d399"/><rect x="199.4" y="325.5" width="3.2" height="6" rx="2.5" fill="#34d399"/><rect x="199.9" y="325.5" width="3.2" height="6" rx="2.5" fill="#34d399"/><rect x="200.5" y="325.5" width="3.2" height="6" rx="2.5" fill="#34d399"/><rect x="202.8" y="330.9" width="3.2" height="6" rx="2.5" fill="#34d399"/><rect x="203.4" y="330.9" width="3.2" height="6" rx="2.5" fill="#34d399"/><rect x="204.0" y="330.9" width="3.2" height="6" rx="2.5" fill="#34d399"/><rect x="242.5" y="392.0" width="3.2" height="6" rx="2.5" fill="#34d399"/><rect x="243.1" y="392.0" width="3.2" height="6" rx="2.5" fill="#34d399"/><rect x="243.7" y="392.0" width="3.2" height="6" rx="2.5" fill="#34d399"/><rect x="266.6" y="429.1" width="3.2" height="6" rx="2.5" fill="#34d399"/><rect x="267.2" y="429.1" width="3.2" height="6" rx="2.5" fill="#34d399"/><rect x="267.8" y="429.1" width="3.2" height="6" rx="2.5" fill="#34d399"/><rect x="342.6" y="381.3" width="3.2" height="6" rx="2.5" fill="#34d399"/><rect x="343.1" y="381.3" width="3.2" height="6" rx="2.5" fill="#34d399"/><rect x="343.7" y="381.3" width="3.2" height="6" rx="2.5" fill="#34d399"/><rect x="344.3" y="378.7" width="3.2" height="6" rx="2.5" fill="#34d399"/><rect x="344.9" y="378.7" width="3.2" height="6" rx="2.5" fill="#34d399"/><rect x="345.4" y="378.7" width="3.2" height="6" rx="2.5" fill="#34d399"/><rect x="382.2" y="320.2" width="3.2" height="6" rx="2.5" fill="#34d399"/><rect x="382.8" y="320.2" width="3.2" height="6" rx="2.5" fill="#34d399"/><rect x="470.2" y="184.8" width="3.2" height="6" rx="2.5" fill="#34d399"/><rect x="470.8" y="184.8" width="3.2" height="6" rx="2.5" fill="#34d399"/><rect x="471.4" y="184.8" width="3.2" height="6" rx="2.5" fill="#34d399"/><text x="70" y="488" font-family="Inter, 'Segoe UI', Helvetica, Arial, sans-serif" font-size="11" font-weight="400" fill="#8fa3c4" text-anchor="start">0</text><text x="530" y="488" font-family="Inter, 'Segoe UI', Helvetica, Arial, sans-serif" font-size="11" font-weight="400" fill="#8fa3c4" text-anchor="end">800 slots</text><text x="300.0" y="488" font-family="Inter, 'Segoe UI', Helvetica, Arial, sans-serif" font-size="11" font-weight="400" fill="#8fa3c4" text-anchor="middle">time</text><text x="64" y="138" font-family="Inter, 'Segoe UI', Helvetica, Arial, sans-serif" font-size="11" font-weight="400" fill="#8fa3c4" text-anchor="end">1 GHz</text><text x="64" y="468" font-family="Inter, 'Segoe UI', Helvetica, Arial, sans-serif" font-size="11" font-weight="400" fill="#8fa3c4" text-anchor="end">10 GHz</text><rect x="620" y="56" width="560" height="430" rx="14" fill="#111a2e" stroke="#22d3ee" stroke-width="1.8"/><text x="900.0" y="88" font-family="Inter, 'Segoe UI', Helvetica, Arial, sans-serif" font-size="17" font-weight="800" fill="#22d3ee" text-anchor="middle">CORTEX HYBRID</text><text x="900.0" y="108" font-family="Inter, 'Segoe UI', Helvetica, Arial, sans-serif" font-size="12.5" font-weight="400" fill="#8fa3c4" text-anchor="middle">dwell-and-lock on hits · jumps to stale or promising bands</text><rect x="670" y="128" width="460" height="340" rx="6" fill="#0a1020" stroke="#2a3a5c" stroke-width="1"/><rect x="758.5" y="258.2" width="121.3" height="2.6" fill="#94a3b8" opacity=".55"/><rect x="698.2" y="369.7" width="73.6" height="2.6" fill="#94a3b8" opacity=".55"/><rect x="985.1" y="428.2" width="77.1" height="2.6" fill="#94a3b8" opacity=".55"/><rect x="703.9" y="271.4" width="137.4" height="2.6" fill="#94a3b8" opacity=".55"/><rect x="691.9" y="221.0" width="75.9" height="2.6" fill="#94a3b8" opacity=".55"/><rect x="916.1" y="295.3" width="73.0" height="2.6" fill="#94a3b8" opacity=".55"/><rect x="722.9" y="228.9" width="144.3" height="2.6" fill="#94a3b8" opacity=".55"/><rect x="701.0" y="422.8" width="10.9" height="2.6" fill="#94a3b8" opacity=".55"/><rect x="714.3" y="218.3" width="12.1" height="2.6" fill="#94a3b8" opacity=".55"/><rect x="729.2" y="337.8" width="10.9" height="2.6" fill="#94a3b8" opacity=".55"/><rect x="742.5" y="159.9" width="17.2" height="2.6" fill="#94a3b8" opacity=".55"/><rect x="760.3" y="332.5" width="10.9" height="2.6" fill="#94a3b8" opacity=".55"/><rect x="774.6" y="242.2" width="12.7" height="2.6" fill="#94a3b8" opacity=".55"/><rect x="789.0" y="327.2" width="12.7" height="2.6" fill="#94a3b8" opacity=".55"/><rect x="801.7" y="332.5" width="15.5" height="2.6" fill="#94a3b8" opacity=".55"/><rect x="820.6" y="178.5" width="13.2" height="2.6" fill="#94a3b8" opacity=".55"/><rect x="836.2" y="268.8" width="13.8" height="2.6" fill="#94a3b8" opacity=".55"/><rect x="850.0" y="335.2" width="11.5" height="2.6" fill="#94a3b8" opacity=".55"/><rect x="861.5" y="311.3" width="13.8" height="2.6" fill="#94a3b8" opacity=".55"/><rect x="878.1" y="406.9" width="17.8" height="2.6" fill="#94a3b8" opacity=".55"/><rect x="897.1" y="340.5" width="18.4" height="2.6" fill="#94a3b8" opacity=".55"/><rect x="917.2" y="244.9" width="16.7" height="2.6" fill="#94a3b8" opacity=".55"/><rect x="934.5" y="380.3" width="13.2" height="2.6" fill="#94a3b8" opacity=".55"/><rect x="951.2" y="170.5" width="14.4" height="2.6" fill="#94a3b8" opacity=".55"/><rect x="967.8" y="321.9" width="15.5" height="2.6" fill="#94a3b8" opacity=".55"/><rect x="985.1" y="391.0" width="16.1" height="2.6" fill="#94a3b8" opacity=".55"/><rect x="1002.9" y="348.5" width="15.5" height="2.6" fill="#94a3b8" opacity=".55"/><rect x="1018.5" y="316.6" width="12.1" height="2.6" fill="#94a3b8" opacity=".55"/><rect x="1032.2" y="398.9" width="13.2" height="2.6" fill="#94a3b8" opacity=".55"/><rect x="1046.6" y="308.6" width="12.7" height="2.6" fill="#94a3b8" opacity=".55"/><rect x="1061.0" y="369.7" width="10.9" height="2.6" fill="#94a3b8" opacity=".55"/><rect x="1071.9" y="258.2" width="16.1" height="2.6" fill="#94a3b8" opacity=".55"/><rect x="1090.9" y="345.8" width="16.7" height="2.6" fill="#94a3b8" opacity=".55"/><rect x="1109.3" y="165.2" width="18.4" height="2.6" fill="#94a3b8" opacity=".55"/><rect x="676.3" y="303.3" width="15.0" height="2.6" fill="#94a3b8" opacity=".55"/><rect x="694.1" y="162.5" width="11.5" height="2.6" fill="#94a3b8" opacity=".55"/><rect x="708.5" y="361.8" width="15.5" height="2.6" fill="#94a3b8" opacity=".55"/><rect x="726.4" y="239.6" width="18.4" height="2.6" fill="#94a3b8" opacity=".55"/><rect x="747.6" y="444.1" width="17.2" height="2.6" fill="#94a3b8" opacity=".55"/><rect x="767.8" y="149.2" width="16.7" height="2.6" fill="#94a3b8" opacity=".55"/><rect x="786.1" y="199.7" width="16.7" height="2.6" fill="#94a3b8" opacity=".55"/><rect x="805.1" y="311.3" width="12.1" height="2.6" fill="#94a3b8" opacity=".55"/><rect x="817.2" y="404.2" width="13.8" height="2.6" fill="#94a3b8" opacity=".55"/><rect x="832.1" y="393.6" width="12.7" height="2.6" fill="#94a3b8" opacity=".55"/><rect x="845.4" y="276.8" width="17.2" height="2.6" fill="#94a3b8" opacity=".55"/><rect x="866.1" y="170.5" width="19.0" height="2.6" fill="#94a3b8" opacity=".55"/><rect x="885.6" y="279.4" width="18.4" height="2.6" fill="#94a3b8" opacity=".55"/><rect x="906.3" y="444.1" width="15.0" height="2.6" fill="#94a3b8" opacity=".55"/><rect x="921.9" y="436.1" width="17.8" height="2.6" fill="#94a3b8" opacity=".55"/><rect x="942.0" y="383.0" width="15.0" height="2.6" fill="#94a3b8" opacity=".55"/><rect x="958.6" y="375.0" width="16.7" height="2.6" fill="#94a3b8" opacity=".55"/><rect x="977.0" y="194.4" width="14.4" height="2.6" fill="#94a3b8" opacity=".55"/><rect x="991.4" y="194.4" width="13.2" height="2.6" fill="#94a3b8" opacity=".55"/><rect x="1005.2" y="146.6" width="14.4" height="2.6" fill="#94a3b8" opacity=".55"/><rect x="1021.3" y="231.6" width="13.2" height="2.6" fill="#94a3b8" opacity=".55"/><rect x="1035.7" y="191.8" width="10.3" height="2.6" fill="#94a3b8" opacity=".55"/><rect x="1047.8" y="351.1" width="16.7" height="2.6" fill="#94a3b8" opacity=".55"/><rect x="1066.8" y="186.4" width="16.1" height="2.6" fill="#94a3b8" opacity=".55"/><rect x="1085.7" y="353.8" width="19.6" height="2.6" fill="#94a3b8" opacity=".55"/><rect x="1108.2" y="298.0" width="10.9" height="2.6" fill="#94a3b8" opacity=".55"/><rect x="1122.5" y="276.8" width="7.5" height="2.6" fill="#94a3b8" opacity=".55"/><rect x="698.8" y="306.0" width="12.1" height="2.6" fill="#94a3b8" opacity=".55"/><rect x="713.7" y="162.5" width="17.2" height="2.6" fill="#94a3b8" opacity=".55"/><rect x="731.5" y="213.0" width="11.5" height="2.6" fill="#94a3b8" opacity=".55"/><rect x="744.8" y="181.1" width="13.2" height="2.6" fill="#94a3b8" opacity=".55"/><rect x="759.1" y="178.5" width="10.9" height="2.6" fill="#94a3b8" opacity=".55"/><rect x="770.0" y="324.6" width="12.7" height="2.6" fill="#94a3b8" opacity=".55"/><rect x="782.7" y="351.1" width="16.7" height="2.6" fill="#94a3b8" opacity=".55"/><rect x="799.4" y="438.8" width="11.5" height="2.6" fill="#94a3b8" opacity=".55"/><rect x="811.5" y="194.4" width="17.2" height="2.6" fill="#94a3b8" opacity=".55"/><rect x="831.6" y="260.8" width="15.0" height="2.6" fill="#94a3b8" opacity=".55"/><rect x="848.8" y="303.3" width="16.7" height="2.6" fill="#94a3b8" opacity=".55"/><rect x="865.5" y="430.8" width="12.1" height="2.6" fill="#94a3b8" opacity=".55"/><rect x="879.3" y="306.0" width="18.4" height="2.6" fill="#94a3b8" opacity=".55"/><rect x="899.4" y="170.5" width="15.5" height="2.6" fill="#94a3b8" opacity=".55"/><rect x="915.5" y="396.3" width="12.1" height="2.6" fill="#94a3b8" opacity=".55"/><rect x="928.8" y="306.0" width="15.0" height="2.6" fill="#94a3b8" opacity=".55"/><rect x="947.2" y="319.2" width="13.2" height="2.6" fill="#94a3b8" opacity=".55"/><rect x="960.4" y="321.9" width="13.8" height="2.6" fill="#94a3b8" opacity=".55"/><rect x="975.3" y="377.7" width="12.7" height="2.6" fill="#94a3b8" opacity=".55"/><rect x="990.3" y="401.6" width="10.3" height="2.6" fill="#94a3b8" opacity=".55"/><rect x="1002.9" y="361.8" width="15.5" height="2.6" fill="#94a3b8" opacity=".55"/><rect x="1021.9" y="380.3" width="11.5" height="2.6" fill="#94a3b8" opacity=".55"/><rect x="1036.8" y="319.2" width="15.0" height="2.6" fill="#94a3b8" opacity=".55"/><rect x="1053.0" y="263.5" width="13.2" height="2.6" fill="#94a3b8" opacity=".55"/><rect x="1069.6" y="324.6" width="14.4" height="2.6" fill="#94a3b8" opacity=".55"/><rect x="1086.3" y="255.5" width="19.6" height="2.6" fill="#94a3b8" opacity=".55"/><rect x="1108.7" y="351.1" width="14.4" height="2.6" fill="#94a3b8" opacity=".55"/><rect x="1126.5" y="417.5" width="3.4" height="2.6" fill="#94a3b8" opacity=".55"/><rect x="703.4" y="430.8" width="16.1" height="2.6" fill="#94a3b8" opacity=".55"/><rect x="781.0" y="430.8" width="16.1" height="2.6" fill="#94a3b8" opacity=".55"/><rect x="858.6" y="430.8" width="16.1" height="2.6" fill="#94a3b8" opacity=".55"/><rect x="936.2" y="430.8" width="16.1" height="2.6" fill="#94a3b8" opacity=".55"/><rect x="1013.9" y="430.8" width="16.1" height="2.6" fill="#94a3b8" opacity=".55"/><rect x="1091.5" y="430.8" width="16.1" height="2.6" fill="#94a3b8" opacity=".55"/><rect x="742.5" y="221.0" width="16.1" height="2.6" fill="#94a3b8" opacity=".55"/><rect x="824.7" y="221.0" width="16.1" height="2.6" fill="#94a3b8" opacity=".55"/><rect x="906.9" y="221.0" width="16.1" height="2.6" fill="#94a3b8" opacity=".55"/><rect x="989.1" y="221.0" width="16.1" height="2.6" fill="#94a3b8" opacity=".55"/><rect x="1071.3" y="221.0" width="16.1" height="2.6" fill="#94a3b8" opacity=".55"/><rect x="674.0" y="274.1" width="16.1" height="2.6" fill="#94a3b8" opacity=".55"/><rect x="763.7" y="274.1" width="16.1" height="2.6" fill="#94a3b8" opacity=".55"/><rect x="853.4" y="274.1" width="16.1" height="2.6" fill="#94a3b8" opacity=".55"/><rect x="943.1" y="274.1" width="16.1" height="2.6" fill="#94a3b8" opacity=".55"/><rect x="1032.8" y="274.1" width="16.1" height="2.6" fill="#94a3b8" opacity=".55"/><rect x="1122.5" y="274.1" width="7.5" height="2.6" fill="#94a3b8" opacity=".55"/><path d="M670.0,307.3 L671.1,307.3 L671.7,307.3 L671.7,315.3 L672.9,315.3 L673.5,315.3 L673.5,323.2 L674.6,323.2 L675.2,323.2 L675.2,331.2 L676.3,331.2 L676.9,331.2 L676.9,339.2 L678.0,339.2 L678.6,339.2 L678.6,347.1 L679.8,347.1 L680.4,347.1 L680.4,355.1 L681.5,355.1 L682.1,355.1 L682.1,363.1 L683.2,363.1 L683.8,363.1 L683.8,371.0 L685.0,371.0 L685.5,371.0 L685.5,379.0 L686.7,379.0 L687.2,379.0 L687.2,304.6 L690.7,304.6 L691.3,304.6 L691.3,312.6 L692.4,312.6 L693.0,312.6 L693.0,320.6 L694.1,320.6 L694.7,320.6 L694.7,328.5 L695.9,328.5 L696.5,328.5 L696.5,336.5 L697.6,336.5 L698.2,336.5 L698.2,344.5 L699.3,344.5 L699.9,344.5 L699.9,352.5 L701.0,352.5 L701.6,352.5 L701.6,360.4 L702.8,360.4 L703.4,360.4 L703.4,368.4 L704.5,368.4 L705.1,368.4 L705.1,376.4 L706.2,376.4 L706.8,376.4 L706.8,384.3 L708.0,384.3 L708.5,384.3 L708.5,392.3 L709.7,392.3 L710.2,392.3 L710.2,400.3 L711.4,400.3 L712.0,400.3 L712.0,408.2 L713.1,408.2 L713.7,408.2 L713.7,416.2 L714.9,416.2 L715.4,416.2 L715.4,424.2 L716.6,424.2 L717.1,424.2 L717.1,432.1 L718.3,432.1 L718.9,432.1 L718.9,440.1 L720.0,440.1 L720.6,440.1 L720.6,448.1 L721.8,448.1 L722.3,448.1 L722.3,456.0 L723.5,456.0 L724.0,456.0 L724.0,464.0 L725.2,464.0 L725.8,464.0 L725.8,371.0 L739.0,371.0 L739.6,371.0 L739.6,272.8 L752.8,272.8 L753.4,272.8 L753.4,230.3 L766.6,230.3 L767.2,230.3 L767.2,259.5 L780.4,259.5 L781.0,259.5 L781.0,243.5 L786.7,243.5 L787.3,243.5 L787.3,235.6 L788.5,235.6 L789.0,235.6 L789.0,227.6 L790.2,227.6 L790.8,227.6 L790.8,219.6 L791.9,219.6 L792.5,219.6 L792.5,211.7 L793.6,211.7 L794.2,211.7 L794.2,203.7 L795.4,203.7 L795.9,203.7 L795.9,195.7 L797.1,195.7 L797.6,195.7 L797.6,187.8 L798.8,187.8 L799.4,187.8 L799.4,179.8 L800.5,179.8 L801.1,179.8 L801.1,171.8 L802.2,171.8 L802.8,171.8 L802.8,163.9 L804.0,163.9 L804.5,163.9 L804.5,171.8 L805.7,171.8 L806.3,171.8 L806.3,179.8 L807.4,179.8 L808.0,179.8 L808.0,187.8 L809.1,187.8 L809.7,187.8 L809.7,195.7 L810.9,195.7 L811.5,195.7 L811.5,203.7 L812.6,203.7 L813.2,203.7 L813.2,211.7 L814.3,211.7 L814.9,211.7 L814.9,219.6 L816.0,219.6 L816.6,219.6 L816.6,227.6 L817.8,227.6 L818.4,227.6 L818.4,235.6 L819.5,235.6 L820.1,235.6 L820.1,243.5 L821.2,243.5 L821.8,243.5 L821.8,195.7 L828.1,195.7 L828.7,195.7 L828.7,203.7 L829.9,203.7 L830.4,203.7 L830.4,211.7 L831.6,211.7 L832.1,211.7 L832.1,219.6 L833.3,219.6 L833.9,219.6 L833.9,227.6 L835.0,227.6 L835.6,227.6 L835.6,235.6 L836.8,235.6 L837.3,235.6 L837.3,243.5 L838.5,243.5 L839.0,243.5 L839.0,251.5 L840.2,251.5 L840.8,251.5 L840.8,259.5 L841.9,259.5 L842.5,259.5 L842.5,267.5 L843.6,267.5 L844.2,267.5 L844.2,275.4 L845.4,275.4 L846.0,275.4 L846.0,267.5 L847.1,267.5 L847.7,267.5 L847.7,259.5 L848.8,259.5 L849.4,259.5 L849.4,251.5 L850.5,251.5 L851.1,251.5 L851.1,243.5 L852.3,243.5 L852.9,243.5 L852.9,235.6 L854.0,235.6 L854.6,235.6 L854.6,227.6 L855.7,227.6 L856.3,227.6 L856.3,219.6 L857.5,219.6 L858.0,219.6 L858.0,211.7 L859.2,211.7 L859.8,211.7 L859.8,203.7 L860.9,203.7 L861.5,203.7 L861.5,195.7 L862.6,195.7 L863.2,195.7 L863.2,275.4 L869.0,275.4 L869.5,275.4 L869.5,312.6 L874.7,312.6 L875.3,312.6 L875.3,304.6 L876.4,304.6 L877.0,304.6 L877.0,296.7 L878.1,296.7 L878.7,296.7 L878.7,288.7 L879.9,288.7 L880.5,288.7 L880.5,280.7 L881.6,280.7 L882.2,280.7 L882.2,272.8 L883.3,272.8 L883.9,272.8 L883.9,264.8 L885.0,264.8 L885.6,264.8 L885.6,256.8 L886.8,256.8 L887.4,256.8 L887.4,248.9 L888.5,248.9 L889.1,248.9 L889.1,240.9 L890.2,240.9 L890.8,240.9 L890.8,232.9 L892.0,232.9 L892.5,232.9 L892.5,280.7 L903.5,280.7 L904.0,280.7 L904.0,272.8 L905.2,272.8 L905.8,272.8 L905.8,264.8 L906.9,264.8 L907.5,264.8 L907.5,256.8 L908.6,256.8 L909.2,256.8 L909.2,248.9 L910.4,248.9 L910.9,248.9 L910.9,240.9 L912.1,240.9 L912.6,240.9 L912.6,232.9 L913.8,232.9 L914.4,232.9 L914.4,225.0 L915.5,225.0 L916.1,225.0 L916.1,217.0 L917.2,217.0 L917.8,217.0 L917.8,209.0 L919.0,209.0 L919.5,209.0 L919.5,201.0 L920.7,201.0 L921.3,201.0 L921.3,296.7 L934.5,296.7 L935.1,296.7 L935.1,307.3 L943.1,307.3 L943.7,307.3 L943.7,315.3 L944.9,315.3 L945.4,315.3 L945.4,323.2 L946.6,323.2 L947.2,323.2 L947.2,331.2 L948.3,331.2 L948.9,331.2 L948.9,339.2 L950.0,339.2 L950.6,339.2 L950.6,347.1 L951.8,347.1 L952.3,347.1 L952.3,355.1 L953.5,355.1 L954.0,355.1 L954.0,363.1 L955.2,363.1 L955.8,363.1 L955.8,371.0 L956.9,371.0 L957.5,371.0 L957.5,379.0 L958.6,379.0 L959.2,379.0 L959.2,387.0 L960.4,387.0 L961.0,387.0 L961.0,376.4 L974.2,376.4 L974.8,376.4 L974.8,323.2 L982.8,323.2 L983.4,323.2 L983.4,331.2 L984.5,331.2 L985.1,331.2 L985.1,339.2 L986.2,339.2 L986.8,339.2 L986.8,347.1 L988.0,347.1 L988.5,347.1 L988.5,355.1 L989.7,355.1 L990.3,355.1 L990.3,363.1 L991.4,363.1 L992.0,363.1 L992.0,371.0 L993.2,371.0 L993.7,371.0 L993.7,379.0 L994.9,379.0 L995.5,379.0 L995.5,387.0 L996.6,387.0 L997.2,387.0 L997.2,395.0 L998.3,395.0 L998.9,395.0 L998.9,402.9 L1000.0,402.9 L1000.6,402.9 L1000.6,395.0 L1001.8,395.0 L1002.4,395.0 L1002.4,387.0 L1003.5,387.0 L1004.1,387.0 L1004.1,379.0 L1005.2,379.0 L1005.8,379.0 L1005.8,371.0 L1007.0,371.0 L1007.5,371.0 L1007.5,363.1 L1008.7,363.1 L1009.2,363.1 L1009.2,355.1 L1010.4,355.1 L1011.0,355.1 L1011.0,347.1 L1012.1,347.1 L1012.7,347.1 L1012.7,339.2 L1013.9,339.2 L1014.4,339.2 L1014.4,331.2 L1015.6,331.2 L1016.1,331.2 L1016.1,323.2 L1017.3,323.2 L1017.9,323.2 L1017.9,429.5 L1031.1,429.5 L1031.7,429.5 L1031.7,400.3 L1044.9,400.3 L1045.5,400.3 L1045.5,320.6 L1051.2,320.6 L1051.8,320.6 L1051.8,328.5 L1053.0,328.5 L1053.5,328.5 L1053.5,336.5 L1054.7,336.5 L1055.2,336.5 L1055.2,344.5 L1056.4,344.5 L1057.0,344.5 L1057.0,352.5 L1058.1,352.5 L1058.7,352.5 L1058.7,360.4 L1059.8,360.4 L1060.4,360.4 L1060.4,368.4 L1061.6,368.4 L1062.2,368.4 L1062.2,376.4 L1063.3,376.4 L1063.9,376.4 L1063.9,384.3 L1065.0,384.3 L1065.6,384.3 L1065.6,392.3 L1066.8,392.3 L1067.3,392.3 L1067.3,400.3 L1068.5,400.3 L1069.0,400.3 L1069.0,408.2 L1070.2,408.2 L1070.8,408.2 L1070.8,416.2 L1071.9,416.2 L1072.5,416.2 L1072.5,424.2 L1073.7,424.2 L1074.2,424.2 L1074.2,432.1 L1075.4,432.1 L1076.0,432.1 L1076.0,440.1 L1077.1,440.1 L1077.7,440.1 L1077.7,448.1 L1078.8,448.1 L1079.4,448.1 L1079.4,456.0 L1080.5,456.0 L1081.1,456.0 L1081.1,464.0 L1082.3,464.0 L1082.8,464.0 L1082.8,456.0 L1084.0,456.0 L1084.6,456.0 L1084.6,448.1 L1085.7,448.1 L1086.3,448.1 L1086.3,355.1 L1099.5,355.1 L1100.1,355.1 L1100.1,347.1 L1107.0,347.1 L1107.6,347.1 L1107.6,355.1 L1108.7,355.1 L1109.3,355.1 L1109.3,363.1 L1110.5,363.1 L1111.0,363.1 L1111.0,371.0 L1112.2,371.0 L1112.8,371.0 L1112.8,379.0 L1113.9,379.0 L1114.5,379.0 L1114.5,387.0 L1115.6,387.0 L1116.2,387.0 L1116.2,395.0 L1117.3,395.0 L1117.9,395.0 L1117.9,402.9 L1119.1,402.9 L1119.7,402.9 L1119.7,410.9 L1120.8,410.9 L1121.4,410.9 L1121.4,418.9 L1122.5,418.9 L1123.1,418.9 L1123.1,426.8 L1124.2,426.8 L1124.8,426.8 L1124.8,434.8 L1126.0,434.8 L1126.5,434.8 L1126.5,442.8 L1127.7,442.8 L1128.3,442.8 L1128.3,450.7 L1129.4,450.7" fill="none" stroke="#22d3ee" stroke-width="1.3" stroke-linecap="round" stroke-linejoin="round" opacity="0.85"/><rect x="687.2" y="301.6" width="5.5" height="6" rx="2.5" fill="#34d399"/><rect x="725.8" y="368.0" width="15.3" height="6" rx="2.5" fill="#34d399"/><rect x="739.6" y="269.8" width="15.3" height="6" rx="2.5" fill="#34d399"/><rect x="753.4" y="227.3" width="15.3" height="6" rx="2.5" fill="#34d399"/><rect x="767.2" y="256.5" width="15.3" height="6" rx="2.5" fill="#34d399"/><rect x="781.0" y="240.5" width="7.8" height="6" rx="2.5" fill="#34d399"/><rect x="821.8" y="192.7" width="8.4" height="6" rx="2.5" fill="#34d399"/><rect x="863.2" y="272.4" width="7.8" height="6" rx="2.5" fill="#34d399"/><rect x="869.5" y="309.6" width="7.2" height="6" rx="2.5" fill="#34d399"/><rect x="892.5" y="277.7" width="13.0" height="6" rx="2.5" fill="#34d399"/><rect x="921.3" y="293.7" width="15.3" height="6" rx="2.5" fill="#34d399"/><rect x="935.1" y="304.3" width="10.1" height="6" rx="2.5" fill="#34d399"/><rect x="961.0" y="373.4" width="15.3" height="6" rx="2.5" fill="#34d399"/><rect x="974.8" y="320.2" width="10.1" height="6" rx="2.5" fill="#34d399"/><rect x="1017.9" y="426.5" width="15.3" height="6" rx="2.5" fill="#34d399"/><rect x="1031.7" y="397.3" width="15.3" height="6" rx="2.5" fill="#34d399"/><rect x="1045.5" y="317.6" width="7.8" height="6" rx="2.5" fill="#34d399"/><rect x="1086.3" y="352.1" width="15.3" height="6" rx="2.5" fill="#34d399"/><rect x="1100.1" y="344.1" width="9.0" height="6" rx="2.5" fill="#34d399"/><text x="670" y="488" font-family="Inter, 'Segoe UI', Helvetica, Arial, sans-serif" font-size="11" font-weight="400" fill="#8fa3c4" text-anchor="start">0</text><text x="1130" y="488" font-family="Inter, 'Segoe UI', Helvetica, Arial, sans-serif" font-size="11" font-weight="400" fill="#8fa3c4" text-anchor="end">800 slots</text><text x="900.0" y="488" font-family="Inter, 'Segoe UI', Helvetica, Arial, sans-serif" font-size="11" font-weight="400" fill="#8fa3c4" text-anchor="middle">time</text><text x="664" y="138" font-family="Inter, 'Segoe UI', Helvetica, Arial, sans-serif" font-size="11" font-weight="400" fill="#8fa3c4" text-anchor="end">1 GHz</text><text x="664" y="468" font-family="Inter, 'Segoe UI', Helvetica, Arial, sans-serif" font-size="11" font-weight="400" fill="#8fa3c4" text-anchor="end">10 GHz</text><rect x="330" y="516" width="26" height="3" fill="#94a3b8" opacity=".7"/><text x="364" y="522" font-family="Inter, 'Segoe UI', Helvetica, Arial, sans-serif" font-size="12" font-weight="400" fill="#8fa3c4" text-anchor="start">emitter activity</text><rect x="500" y="514" width="20" height="7" rx="3" fill="#34d399"/><text x="528" y="522" font-family="Inter, 'Segoe UI', Helvetica, Arial, sans-serif" font-size="12" font-weight="400" fill="#8fa3c4" text-anchor="start">hit (intercept)</text><line x1="670" y1="519" x2="696" y2="519" stroke="#22d3ee" stroke-width="2"/><text x="704" y="522" font-family="Inter, 'Segoe UI', Helvetica, Arial, sans-serif" font-size="12" font-weight="400" fill="#8fa3c4" text-anchor="start">receiver position</text><text x="600" y="546" font-family="Inter, 'Segoe UI', Helvetica, Arial, sans-serif" font-size="11.5" font-weight="400" fill="#8fa3c4" text-anchor="middle">Illustrative hand-scripted schematic on identical emitters, not measured data. Real GUI capture and 1,000-seed results follow below.</text></svg>